<?xml version="1.0" encoding="utf-8"?>
<!-- Generator: Adobe Illustrator 22.1.0, SVG Export Plug-In . SVG Version: 6.00 Build 0)  -->
<svg version="1.1" id="Layer_1" xmlns="http://www.w3.org/2000/svg" xmlns:xlink="http://www.w3.org/1999/xlink" x="0px" y="0px"
	 viewBox="0 0 32 32" style="enable-background:new 0 0 32 32;" xml:space="preserve">
<style type="text/css">
	.st0{fill:url(#SVGID_1_);}
	.st1{fill:url(#SVGID_2_);}
	.st2{fill:url(#SVGID_3_);}
	.st3{fill:url(#SVGID_4_);}
	.st4{fill:url(#SVGID_5_);}
	.st5{fill:url(#SVGID_6_);}
</style>
<linearGradient id="SVGID_1_" gradientUnits="userSpaceOnUse" x1="2.8246" y1="10.6026" x2="29.3543" y2="22.6697" gradientTransform="matrix(1 0 0 -1 0 34)">
	<stop  offset="0" style="stop-color:#3B8AC9"/>
	<stop  offset="0.68" style="stop-color:#7661AA"/>
	<stop  offset="1" style="stop-color:#9451A0"/>
</linearGradient>
<path class="st0" d="M8.6,23.6c-0.1,0.1-0.5,0.8-1.1,0.8s-1-0.8-1-0.8l-3.1-7.3l-0.8,1.9C2,19.6,2,21.1,2.5,22.5l1,2.4
	c0.4,1,1.7,2.8,4,2.8s3.6-1.7,4-2.7c0,0,0,0,0,0l1.9-4.4l-1.7-4.1L8.6,23.6z"/>
<radialGradient id="SVGID_2_" cx="-821.9417" cy="489.3766" r="1" gradientTransform="matrix(7.734 0 0 -7.734 6364.4019 3810.0491)" gradientUnits="userSpaceOnUse">
	<stop  offset="0.51" style="stop-color:#5A4A9E;stop-opacity:0"/>
	<stop  offset="0.58" style="stop-color:#53499C;stop-opacity:6.000000e-02"/>
	<stop  offset="0.71" style="stop-color:#3F4898;stop-opacity:0.22"/>
	<stop  offset="0.87" style="stop-color:#1D4591;stop-opacity:0.5"/>
</radialGradient>
<path class="st1" d="M8.6,23.6c-0.1,0.1-0.5,0.8-1.1,0.8s-1-0.8-1-0.8l-3.1-7.3l-0.8,1.9C2,19.6,2,21.1,2.5,22.5l1,2.4
	c0.4,1,1.7,2.8,4,2.8s3.6-1.7,4-2.7c0,0,0,0,0,0l1.9-4.4l-1.7-4.1L8.6,23.6z"/>
<linearGradient id="SVGID_3_" gradientUnits="userSpaceOnUse" x1="3.532" y1="10.5076" x2="28.8452" y2="21.8271" gradientTransform="matrix(1 0 0 -1 0 34)">
	<stop  offset="3.000000e-02" style="stop-color:#E21587"/>
	<stop  offset="0.14" style="stop-color:#E31A82"/>
	<stop  offset="0.27" style="stop-color:#E72874"/>
	<stop  offset="0.41" style="stop-color:#EE3F5C"/>
	<stop  offset="0.44" style="stop-color:#EF4457"/>
	<stop  offset="0.52" style="stop-color:#F15553"/>
	<stop  offset="0.71" style="stop-color:#F4784B"/>
	<stop  offset="0.87" style="stop-color:#F68D46"/>
	<stop  offset="0.98" style="stop-color:#F79544"/>
</linearGradient>
<path class="st2" d="M31.8,15.8l-2.3-5.5c0.5,1.4,0.4,2.9-0.1,4.2l-0.8,1.9l-2.5,5.9L25,24.8l1.1-2.5l-2,4.7
	c-0.1,0.1-0.8,1.6-2.2,1.6c-1.4,0-2-1.5-2.1-1.6l-4.6-10.7l-1.7-4.1l-1.9-4.5c-0.4-1-1.7-2.8-4-2.8C5.3,5.1,4,6.8,3.5,7.8l0,0
	l-3.4,7.9C0,16.1,0,16.6,0.1,17l2.4,5.5C2,21.1,2,19.6,2.5,18.2l0.8-1.9l3.1-7.2C6.5,9,6.9,8.3,7.6,8.3s1,0.8,1,0.8l3.1,7.3l1.7,4.1
	l3.3,7.8c0.5,1.3,2.2,3.5,5,3.5s4.6-2.2,5.2-3.4v0L31.8,17C32,16.6,32,16.2,31.8,15.8z"/>
<linearGradient id="SVGID_4_" gradientUnits="userSpaceOnUse" x1="3.532" y1="10.5076" x2="28.8452" y2="21.8271" gradientTransform="matrix(1 0 0 -1 0 34)">
	<stop  offset="0.37" style="stop-color:#FEF272;stop-opacity:0"/>
	<stop  offset="0.44" style="stop-color:#FEF272;stop-opacity:0.16"/>
	<stop  offset="0.53" style="stop-color:#FEF272;stop-opacity:0.35"/>
	<stop  offset="0.62" style="stop-color:#FEF272;stop-opacity:0.51"/>
	<stop  offset="0.71" style="stop-color:#FEF272;stop-opacity:0.64"/>
	<stop  offset="0.79" style="stop-color:#FEF272;stop-opacity:0.73"/>
	<stop  offset="0.87" style="stop-color:#FEF272;stop-opacity:0.78"/>
	<stop  offset="0.94" style="stop-color:#FEF272;stop-opacity:0.8"/>
</linearGradient>
<path class="st3" d="M31.8,15.8l-2.3-5.5c0.5,1.4,0.4,2.9-0.1,4.2l-0.8,1.9l-2.5,5.9L25,24.8l1.1-2.5l-2,4.7
	c-0.1,0.1-0.8,1.6-2.2,1.6c-1.4,0-2-1.5-2.1-1.6l-4.6-10.7l-1.7-4.1l-1.9-4.5c-0.4-1-1.7-2.8-4-2.8C5.3,5.1,4,6.8,3.5,7.8l0,0
	l-3.4,7.9C0,16.1,0,16.6,0.1,17l2.4,5.5C2,21.1,2,19.6,2.5,18.2l0.8-1.9l3.1-7.2C6.5,9,6.9,8.3,7.6,8.3s1,0.8,1,0.8l3.1,7.3l1.7,4.1
	l3.3,7.8c0.5,1.3,2.2,3.5,5,3.5s4.6-2.2,5.2-3.4v0L31.8,17C32,16.6,32,16.2,31.8,15.8z"/>
<linearGradient id="SVGID_5_" gradientUnits="userSpaceOnUse" x1="1.349" y1="15.2923" x2="27.6931" y2="26.555" gradientTransform="matrix(1 0 0 -1 0 34)">
	<stop  offset="0" style="stop-color:#3B8AC9"/>
	<stop  offset="0.68" style="stop-color:#7661AA"/>
	<stop  offset="1" style="stop-color:#9451A0"/>
</linearGradient>
<path class="st4" d="M19.7,5.8c0.1-0.1,0.9-1.6,2.2-1.6c1.4,0,2,1.5,2.1,1.6l4.6,10.6l0.8-1.9c0.5-1.4,0.5-2.8,0.1-4.2L27,4.5
	C26.5,3.2,24.8,1,22,1c-2.8,0-4.6,2.2-5.2,3.4v0l-3.3,7.8l1.7,4.1L19.7,5.8z"/>
<radialGradient id="SVGID_6_" cx="-838.0251" cy="498.2872" r="1" gradientTransform="matrix(8.9078 0 0 -8.9078 7485.3877 4447.311)" gradientUnits="userSpaceOnUse">
	<stop  offset="0.39" style="stop-color:#712B8E;stop-opacity:0"/>
	<stop  offset="0.5" style="stop-color:#712B8E;stop-opacity:3.000000e-02"/>
	<stop  offset="0.63" style="stop-color:#712B8E;stop-opacity:0.12"/>
	<stop  offset="0.75" style="stop-color:#712B8E;stop-opacity:0.27"/>
	<stop  offset="0.88" style="stop-color:#712B8E;stop-opacity:0.49"/>
	<stop  offset="0.89" style="stop-color:#712B8E;stop-opacity:0.5"/>
</radialGradient>
<path class="st5" d="M19.7,5.8c0.1-0.1,0.9-1.6,2.2-1.6c1.4,0,2,1.5,2.1,1.6l4.6,10.6l0.8-1.9c0.5-1.4,0.5-2.8,0.1-4.2L27,4.5
	C26.5,3.2,24.8,1,22,1c-2.8,0-4.6,2.2-5.2,3.4v0l-3.3,7.8l1.7,4.1L19.7,5.8z"/>
</svg>
